<svg id="Layer_2" data-name="Layer 2" xmlns="http://www.w3.org/2000/svg" viewBox="0 0 1600 1600"><defs><style>.cls-1,.cls-11,.cls-13{fill:#406eff;}.cls-1,.cls-11{stroke:#406eff;}.cls-1,.cls-13,.cls-15,.cls-16,.cls-2,.cls-3,.cls-4,.cls-5{stroke-linecap:round;stroke-linejoin:round;}.cls-1,.cls-10,.cls-11,.cls-13,.cls-14,.cls-15,.cls-16,.cls-17,.cls-2,.cls-3,.cls-4,.cls-5,.cls-7,.cls-8{stroke-width:2.00px;}.cls-10,.cls-15,.cls-2{fill:none;}.cls-10,.cls-13,.cls-14,.cls-2,.cls-3,.cls-4,.cls-5,.cls-7,.cls-8{stroke:#373d3b;}.cls-12,.cls-14,.cls-3{fill:#373d3b;}.cls-16,.cls-17,.cls-4,.cls-8,.cls-9{fill:#fff;}.cls-5,.cls-6,.cls-7{fill:#fcfcfc;}.cls-10,.cls-11,.cls-14,.cls-17,.cls-7,.cls-8{stroke-miterlimit:10;}.cls-15,.cls-16,.cls-17{stroke:#fff;}</style></defs><circle class="cls-1" cx="309" cy="337.44" r="14.22"></circle><line class="cls-2" x1="344.11" y1="327.67" x2="538.78" y2="327.67"></line><line class="cls-2" x1="344.11" y1="347.22" x2="448.11" y2="347.22"></line><circle class="cls-1" cx="309" cy="409.89" r="14.22"></circle><line class="cls-2" x1="344.11" y1="400.11" x2="498.78" y2="400.11"></line><line class="cls-2" x1="344.11" y1="419.67" x2="495.22" y2="419.67"></line><circle class="cls-1" cx="309" cy="482.33" r="14.22"></circle><line class="cls-2" x1="344.11" y1="472.56" x2="460.26" y2="472.56"></line><line class="cls-2" x1="344.11" y1="492.11" x2="428.26" y2="492.11"></line><circle class="cls-1" cx="309" cy="554.78" r="14.22"></circle><line class="cls-2" x1="344.11" y1="545" x2="432.41" y2="545"></line><line class="cls-2" x1="344.11" y1="564.56" x2="396.11" y2="564.56"></line><path class="cls-1" d="M858.49,611.73l136.15-49.35a274.41,274.41,0,0,0-45.35-79.05L836.92,574.61A129.56,129.56,0,0,1,858.49,611.73Z"></path><path class="cls-3" d="M737,787.2a130.15,130.15,0,0,1-23.1-2.05L688.44,927.69A276.5,276.5,0,0,0,737,932a273.44,273.44,0,0,0,125.93-30.53l-66-128.86A129.16,129.16,0,0,1,737,787.2Z"></path><path class="cls-1" d="M607.22,657.42a129.81,129.81,0,0,1,107.6-127.88l-25.06-142.6c-129.11,22.4-227.3,135-227.3,270.48,0,135.06,97.52,247.34,226,270.27L713.9,785.15A129.82,129.82,0,0,1,607.22,657.42Z"></path><path class="cls-4" d="M1011.54,657.42a273.92,273.92,0,0,0-16.9-95L858.49,611.73a129.87,129.87,0,0,1-61.61,160.85l66,128.86C951.2,855.79,1011.54,763.66,1011.54,657.42Z"></path><path class="cls-4" d="M737,527.65a129.52,129.52,0,0,1,99.92,47l112.37-91.28a274.91,274.91,0,0,0-259.53-96.39l25.06,142.6A130.78,130.78,0,0,1,737,527.65Z"></path><rect class="cls-1" x="702.71" y="1162.48" width="92.44" height="217.85"></rect><rect class="cls-4" x="702.71" y="1117.59" width="92.44" height="44.89"></rect><rect class="cls-1" x="842.65" y="1247.67" width="92.44" height="132.66"></rect><rect class="cls-4" x="842.65" y="1202.78" width="92.44" height="44.89"></rect><rect class="cls-1" x="982.58" y="1184.93" width="92.44" height="195.41"></rect><rect class="cls-4" x="982.58" y="1140.04" width="92.44" height="44.89"></rect><polyline class="cls-2" points="642.04 1102.63 667.82 1124.85 753.82 1036.81 892.05 1162.48 1057.38 994.26"></polyline><circle class="cls-1" cx="642.04" cy="1102.63" r="8"></circle><circle class="cls-1" cx="892.05" cy="1162.48" r="8"></circle><circle class="cls-1" cx="753.82" cy="1036.81" r="8"></circle><circle class="cls-1" cx="1057.38" cy="994.26" r="8"></circle><line class="cls-2" x1="210.13" y1="1380.33" x2="1389.87" y2="1380.33"></line><rect class="cls-4" x="883.96" y="242.19" width="18.07" height="18.07"></rect><rect class="cls-1" x="846.11" y="276.04" width="26.22" height="26.22"></rect><rect class="cls-1" x="1257.35" y="436.66" width="21.28" height="21.28"></rect><rect class="cls-4" x="1002.19" y="349.81" width="21.04" height="21.04"></rect><rect class="cls-4" x="999.59" y="392.19" width="26.22" height="26.22"></rect><rect class="cls-4" x="1079.81" y="337.3" width="19.85" height="19.85"></rect><rect class="cls-1" x="966.33" y="323.89" width="20.44" height="20.44"></rect><rect class="cls-1" x="1044.04" y="369" width="26.22" height="26.22"></rect><rect class="cls-1" x="1008.48" y="302.26" width="26.22" height="26.22"></rect><path class="cls-4" d="M445.77,981.65a430.89,430.89,0,0,0,129.84,78.84l83.25-212.11a204.39,204.39,0,0,1-125.93-240l-220.86-56C274.21,704.14,320.29,871.2,445.77,981.65Z"></path><path class="cls-3" d="M1362.62,701.15c21.24-15.68,34.28-34,29.13-41l-1-1c-6.51-5.15-26.72,2-46.8,16.79s-33,32.27-29.76,39.94l.63,1.09C1320,723.89,1341.37,716.84,1362.62,701.15Z"></path><circle class="cls-5" cx="1400.19" cy="753.93" r="38.27"></circle><circle class="cls-3" cx="1310.16" cy="652.41" r="39.95"></circle><polygon class="cls-6" points="1364.48 654.24 1427.44 727.06 1371.11 778.8 1304.09 705.11 1364.48 654.24"></polygon><line class="cls-2" x1="1371.11" y1="778.8" x2="1280.3" y2="678.95"></line><line class="cls-2" x1="1338.97" y1="624.73" x2="1427.44" y2="727.06"></line><path class="cls-3" d="M1288.18,687.62,1314,716c-3.25-7.69,9.57-25.08,29.83-40s40.39-22,46.92-16.83l-56.94-38.89"></path><circle class="cls-5" cx="1296.8" cy="831.12" r="19.91"></circle><circle class="cls-6" cx="1400.19" cy="753.93" r="24.84"></circle><polyline class="cls-6" points="1372.69 727.32 1293.21 811.53 1305.88 848.85 1418.11 787.74"></polyline><line class="cls-2" x1="1305.88" y1="848.84" x2="1418.11" y2="787.74"></line><line class="cls-2" x1="1372.69" y1="727.32" x2="1293.21" y2="811.53"></line><circle class="cls-5" cx="1258.02" cy="852.4" r="4.15"></circle><path class="cls-5" d="M1255.07,849.49s-14.64,16.45-11.65,18.63c3.47,2.52,17.59-12.84,17.59-12.84"></path><circle class="cls-5" cx="1272.73" cy="844.92" r="5.46"></circle><polyline class="cls-6" points="1259.87 856.12 1274.66 850.04 1269.64 840.42 1256.1 848.72"></polyline><line class="cls-2" x1="1269.64" y1="840.42" x2="1256.1" y2="848.72"></line><line class="cls-2" x1="1259.87" y1="856.12" x2="1274.66" y2="850.04"></line><circle class="cls-5" cx="1250" cy="847.51" r="4.15"></circle><path class="cls-5" d="M1247.2,844.45s-15.47,15.68-12.59,18c3.34,2.7,18.22-11.91,18.22-11.91"></path><circle class="cls-5" cx="1270.27" cy="839.43" r="5.46"></circle><polyline class="cls-6" points="1251.65 851.32 1271.93 844.64 1267.41 834.77 1248.27 843.74"></polyline><line class="cls-2" x1="1267.41" y1="834.77" x2="1248.27" y2="843.74"></line><line class="cls-2" x1="1251.65" y1="851.32" x2="1271.93" y2="844.64"></line><circle class="cls-5" cx="1246.56" cy="839.94" r="4.15"></circle><path class="cls-5" d="M1243.6,837S1229,853.56,1232,855.72c3.49,2.51,17.53-12.92,17.53-12.92"></path><circle class="cls-5" cx="1266.35" cy="830.73" r="5.46"></circle><polyline class="cls-6" points="1248.42 843.65 1268.3 835.84 1263.23 826.25 1244.62 836.27"></polyline><line class="cls-2" x1="1263.23" y1="826.25" x2="1244.62" y2="836.27"></line><line class="cls-2" x1="1248.42" y1="843.65" x2="1268.29" y2="835.84"></line><circle class="cls-5" cx="1247.14" cy="824.11" r="4.15"></circle><path class="cls-5" d="M1245.94,820.14s-20.71,7.5-19.12,10.84c1.85,3.87,21.58-2.92,21.58-2.92"></path><circle class="cls-5" cx="1265.49" cy="822.08" r="5.46"></circle><polyline class="cls-6" points="1247.49 828.24 1265.58 827.54 1264.09 816.8 1246.57 820"></polyline><line class="cls-2" x1="1264.08" y1="816.8" x2="1246.57" y2="820"></line><line class="cls-2" x1="1247.49" y1="828.24" x2="1265.58" y2="827.54"></line><circle class="cls-6" cx="1296.8" cy="831.12" r="9.18"></circle><polyline class="cls-6" points="1293.21 811.53 1264.49 816.7 1272.82 850.39 1295.86 851"></polyline><line class="cls-2" x1="1272.82" y1="850.39" x2="1295.86" y2="851"></line><line class="cls-2" x1="1293.21" y1="811.53" x2="1264.49" y2="816.7"></line><circle class="cls-7" cx="1269.68" cy="816.93" r="4.76"></circle><path class="cls-5" d="M1270.08,812.19l-15.95-1.58a2.07,2.07,0,0,0-2.16,2.67,5.42,5.42,0,0,0,1.88,2.5c3.15,2.53,12.16,4.79,13.94,5.51"></path><circle class="cls-6" cx="1285.85" cy="821.47" r="7.93"></circle><path class="cls-6" d="M1270.08,812.19l16.8,1.42s1.73,5.94-4.79,14.84c0,0-10.79-5.73-14.3-7.16"></path><path class="cls-2" d="M1282.09,828.45s-10.79-5.73-14.3-7.16"></path><line class="cls-2" x1="1270.08" y1="812.19" x2="1286.88" y2="813.61"></line><circle class="cls-4" cx="1245.84" cy="1358.16" r="22.19"></circle><path class="cls-4" d="M1246,1380.35l-52.83-.1c-1.22,0-2.18-1.44-2.18-3.61,0-19.66,21.52-40.7,53.64-40.64"></path><ellipse class="cls-8" cx="1326.4" cy="1305.18" rx="47.42" ry="47.64" transform="translate(-427.52 1926.94) rotate(-64.06)"></ellipse><path class="cls-9" d="M1373.91,1308.32l-1.13,64.44c-1.26,4.69-4.17,7.31-9.06,7.32l-117.64.27,2.28-22.2-4.84-22.07c30.53-5.26,36.08-39.86,36.08-39.86Z"></path><path class="cls-10" d="M1243.52,1336.08c30.53-5.26,36.08-39.86,36.08-39.86"></path><path class="cls-10" d="M1373.91,1308.32l-1.13,64.44c-1.26,4.69-4.17,7.31-9.06,7.32l-117.64.27"></path><line class="cls-2" x1="1271.91" y1="1316.07" x2="1297.09" y2="1326.27"></line><line class="cls-2" x1="1267.16" y1="1322.6" x2="1288.17" y2="1337.21"></line><line class="cls-2" x1="1260.28" y1="1329.01" x2="1275.69" y2="1344.21"></line><circle class="cls-11" cx="1319.99" cy="1044.81" r="58.56"></circle><polyline class="cls-11" points="1261.49 1047.5 1275.93 1279.46 1375 1273.59 1378.44 1048.3"></polyline><polygon class="cls-4" points="1276.56 1306.67 1375.94 1301.65 1375.04 1271.15 1275.89 1277.61 1276.56 1306.67"></polygon><circle class="cls-11" cx="1319.27" cy="859.1" r="60.6"></circle><polygon class="cls-11" points="1378.54 1044 1261.43 1045.42 1258.67 859.37 1379.86 860.59 1378.54 1044"></polygon><circle class="cls-8" cx="1265.75" cy="626.3" r="20.34"></circle><polygon class="cls-6" points="1286.89 624.71 1247.54 636.54 1231.06 583.22 1265.54 572.57 1286.89 624.71"></polygon><line class="cls-4" x1="1265.54" y1="572.56" x2="1286.89" y2="624.71"></line><line class="cls-4" x1="1247.54" y1="636.54" x2="1231.05" y2="583.22"></line><path class="cls-6" d="M1268.53,583.74a36.67,36.67,0,0,1-5.6,3.16c-4.74,2.33-10.5,4.76-10.5,4.76s-4.85,2.91-15.11,5c-11.07,2.27-23.4.71-24.93-11.69-.57-4.66.18-12.31,1.81-20.64-4.46-3.6-2-8,2.2-9.56,2.87-10.91,6.93-21.5,11.25-26.87,7.69-8.95,38-8,48.59,7.07,2.89,4.13,5.18,9.29,4.87,14.71-.37,6.32-4.64,13.59-6.79,19.24C1271.19,577.14,1269.79,582.72,1268.53,583.74Z"></path><path class="cls-2" d="M1244.55,594.84c-2,.62-4.42,1.26-7.23,1.83-11.07,2.27-23.4.71-24.93-11.69-.57-4.66.18-12.3,1.81-20.61-2.87-2.25-2.56-4.63-2.07-5.88.87-2.19,3.53-3.17,4.27-3.68,2.87-10.92,6.93-21.53,11.25-26.9"></path><path class="cls-3" d="M1281.11,549.69c-1.27,6.23-4.29,12.47-6.64,18.83-3.55,9.61-5,13.7-5,13.7-6.56,4.68-24.64-12-17.78-30.43-1.15-12-25.75-14.22-25.72-21.54-.35-11.06,26-10,40.39-4C1282.7,533.15,1281.11,549.69,1281.11,549.69Z"></path><path class="cls-5" d="M1245.27,559.52s17.53-5.62,18.83,3.5c1.19,8.29-20.54,10.8-20.54,10.8"></path><line class="cls-2" x1="1254.88" y1="564.06" x2="1244.41" y2="566.23"></line><circle class="cls-12" cx="1225.22" cy="553.72" r="2.28"></circle><path class="cls-2" d="M1213,571.39a5.17,5.17,0,0,0,4.06,1.08c2.64-.39,5.49-2.77,5.49-2.77"></path><circle class="cls-4" cx="1167.58" cy="1357.75" r="22.19"></circle><path class="cls-4" d="M1167.79,1380l-52.84,0c-1.22,0-2.18-1.43-2.19-3.61,0-19.66,21.42-40.75,53.53-40.78"></path><ellipse class="cls-8" cx="1229.58" cy="1283.91" rx="47.42" ry="47.64" transform="matrix(0.16, -0.99, 0.99, 0.16, -236.02, 2290.04)"></ellipse><path class="cls-9" d="M1276,1273.31l17.37,62.06c.14,4.85-1.9,8.2-6.57,9.61l-112.64,34L1170,1357l-11-19.76c27.74-13.78,23.14-48.52,23.14-48.52Z"></path><path class="cls-10" d="M1159,1337.26c27.74-13.78,23.14-48.52,23.14-48.52"></path><path class="cls-10" d="M1276,1273.31l17.37,62.06c.14,4.85-1.9,8.2-6.57,9.61l-112.64,34"></path><line class="cls-2" x1="1180.5" y1="1309.95" x2="1207.55" y2="1312.51"></line><line class="cls-2" x1="1177.82" y1="1317.57" x2="1202.14" y2="1325.55"></line><line class="cls-2" x1="1173.07" y1="1325.69" x2="1192.19" y2="1335.83"></line><circle class="cls-11" cx="1170.76" cy="1031.27" r="58.56"></circle><polyline class="cls-11" points="1114.02 1045.74 1175.15 1269.97 1270.98 1244.15 1228.33 1020.7"></polyline><line class="cls-10" x1="1270.98" y1="1244.15" x2="1228.33" y2="1020.7"></line><polygon class="cls-4" points="1181.28 1296.49 1277.58 1271.44 1270.52 1241.76 1174.74 1268.17 1181.28 1296.49"></polygon><circle class="cls-11" cx="1274.31" cy="877.59" r="60.6"></circle><polygon class="cls-11" points="1219.41 1063.83 1121.76 999.21 1224.03 843.76 1323.59 912.88 1219.41 1063.83"></polygon><line class="cls-13" x1="1323.58" y1="912.88" x2="1219.41" y2="1063.83"></line><path class="cls-11" d="M1228.18,813.76s-4.81,29-9.75,40.35c0,26.8,43.62,52.14,100.84,50.94,54.88-1.16,60-54.33,60-54.33l-4.39-33.83Z"></path><circle class="cls-11" cx="1301.34" cy="825.55" r="74.08"></circle><path class="cls-3" d="M1375.43,824.93s-9.08-175.08-38.88-202.55c-6.1-5.63-14.74-9.93-26.88-9.93-37.53,0-98.55,14.26-113.19,19.15-21.5,27.08,29.39,202.41,32.8,211.17,0,0,37.07,11.67,76.6,6.07C1356.77,841.64,1375.43,824.93,1375.43,824.93Z"></path><path class="cls-3" d="M1158.44,722.76c15.76,21.19,34.17,34.18,41.13,29l1-1c5.12-6.53-2-26.72-16.94-46.74s-32.38-32.91-40-29.64l-1.1.63C1135.57,680.19,1142.69,701.56,1158.44,722.76Z"></path><circle class="cls-5" cx="1105.79" cy="760.5" r="38.27"></circle><circle class="cls-3" cx="1207.02" cy="670.15" r="39.95"></circle><polygon class="cls-6" points="1205.37 724.48 1132.74 787.66 1080.83 731.5 1154.3 664.25 1205.37 724.48"></polygon><line class="cls-2" x1="1080.83" y1="731.49" x2="1180.38" y2="640.37"></line><line class="cls-2" x1="1234.8" y1="698.87" x2="1132.74" y2="787.66"></line><path class="cls-3" d="M1171.74,648.28l-28.25,25.9c7.67-3.27,25.11,9.5,40.13,29.71s22.12,40.32,17,46.86l38.7-57"></path><circle class="cls-5" cx="1023.75" cy="600.04" r="5.04"></circle><path class="cls-5" d="M1028.56,598.53c-1-3.77-16.84-23.6-20-19.7s10.35,22.62,10.35,22.62"></path><circle class="cls-5" cx="1032.48" cy="620.69" r="6.64"></circle><polyline class="cls-6" points="1019.11 602.03 1026.15 622.69 1038.15 617.23 1028.34 597.95"></polyline><line class="cls-2" x1="1038.15" y1="617.23" x2="1028.34" y2="597.95"></line><line class="cls-2" x1="1019.11" y1="602.04" x2="1026.15" y2="622.69"></line><circle class="cls-5" cx="1006.47" cy="606.09" r="5.04"></circle><path class="cls-5" d="M1008.9,601.68c-4.71-2.74-19,3.26-17.57,8.9s12.76,0,12.76,0"></path><circle class="cls-5" cx="1022.9" cy="625.14" r="6.64"></circle><polyline class="cls-6" points="1002.53 609.23 1017.55 629.09 1027.14 620.03 1010.13 602.63"></polyline><line class="cls-2" x1="1027.14" y1="620.03" x2="1010.13" y2="602.63"></line><line class="cls-2" x1="1002.53" y1="609.23" x2="1017.55" y2="629.09"></line><circle class="cls-5" cx="1004.56" cy="616.08" r="5.04"></circle><path class="cls-5" d="M1004.27,611.05s-14.58.44-15.3,4.43c-1.34,7.51,15.84,5.64,15.84,5.64"></path><circle class="cls-5" cx="1014.49" cy="633.12" r="6.64"></circle><polyline class="cls-6" points="1000.27 618.75 1008.47 635.91 1019.32 628.57 1008.62 613.09"></polyline><line class="cls-2" x1="1019.32" y1="628.57" x2="1008.62" y2="613.09"></line><line class="cls-2" x1="1000.22" y1="618.63" x2="1008.47" y2="635.91"></line><circle class="cls-5" cx="999.55" cy="625.96" r="5.04"></circle><path class="cls-5" d="M1001,621.13s-11.53-3.71-13.1.5c-1.83,4.89,9.24,8.76,9.24,8.76"></path><circle class="cls-5" cx="1009.18" cy="638.15" r="6.64"></circle><polyline class="cls-6" points="995.42 628.85 1003.82 642.07 1013.44 633.06 1003.23 622.51"></polyline><line class="cls-2" x1="1013.44" y1="633.06" x2="1003.23" y2="622.51"></line><line class="cls-2" x1="995.42" y1="628.85" x2="1003.81" y2="642.07"></line><circle class="cls-5" cx="1030.04" cy="655.76" r="24.2"></circle><polyline class="cls-6" points="1051.93 645.45 1038.48 617.85 1002.94 640.44 1006.18 659.83"></polyline><line class="cls-2" x1="1002.94" y1="640.44" x2="1006.18" y2="659.83"></line><line class="cls-2" x1="1051.87" y1="645.33" x2="1038.49" y2="617.85"></line><circle class="cls-6" cx="1105.79" cy="760.5" r="26.16"></circle><polyline class="cls-6" points="1133.97 734.61 1049.24 641.03 1009.16 668 1073.32 780.75"></polyline><line class="cls-2" x1="1133.97" y1="734.61" x2="1049.24" y2="641.03"></line><line class="cls-2" x1="1009.16" y1="668" x2="1073.32" y2="780.75"></line><circle class="cls-4" cx="285.19" cy="974.59" r="36.37"></circle><circle class="cls-5" cx="207.99" cy="837.21" r="37.45"></circle><path class="cls-6" d="M252.52,990.66l-76-133.14s60.91-37.94,63.61-39.54c27.06,46.55,76.81,138.89,76.81,138.89"></path><path class="cls-4" d="M316.94,956.87l-30.6-56.77s-12.44-.64-34.4,13.84c-14.82,9.77-28.19,26.12-28.19,26.12l29.05,51.1"></path><line class="cls-2" x1="252.8" y1="991.16" x2="176.52" y2="857.52"></line><path class="cls-2" d="M240.13,818c10.91,17.37,76.81,138.89,76.81,138.89"></path><circle class="cls-5" cx="288.62" cy="690.56" r="4.71"></circle><path class="cls-5" d="M292.14,693.71s15.73-12.87,13.22-16.34c-2.62-3.64-19.51,9.39-19.51,9.39"></path><circle class="cls-5" cx="284.26" cy="714.79" r="5.43"></circle><polyline class="cls-6" points="284.02 689.53 278.97 713.58 289.68 715.05 293.29 691.26"></polyline><line class="cls-2" x1="289.68" y1="715.06" x2="293.29" y2="691.26"></line><line class="cls-2" x1="278.97" y1="713.57" x2="284.02" y2="689.53"></line><circle class="cls-5" cx="292.13" cy="689.89" r="4.71"></circle><path class="cls-5" d="M288.77,686.57s15.81-21.38,19.44-19.1c3.8,2.39-12.1,24.94-12.1,24.94"></path><circle class="cls-5" cx="290.1" cy="714.22" r="6.3"></circle><polyline class="cls-6" points="296.83 690.44 296.39 714.35 283.89 713.12 287.48 689.14"></polyline><line class="cls-2" x1="283.89" y1="713.12" x2="287.48" y2="689.14"></line><line class="cls-2" x1="296.81" y1="691.7" x2="296.39" y2="714.35"></line><circle class="cls-5" cx="297.49" cy="691.68" r="4.71"></circle><path class="cls-5" d="M293.38,689.37s14.38-29.44,18.38-27.92c4.19,1.59-9.87,31.92-9.87,31.92"></path><circle class="cls-5" cx="296.31" cy="716.26" r="5.43"></circle><polyline class="cls-6" points="302.21 691.72 301.73 716.27 290.96 715.31 292.8 691.23"></polyline><line class="cls-2" x1="290.96" y1="715.31" x2="292.8" y2="691.23"></line><line class="cls-2" x1="302.21" y1="691.72" x2="301.73" y2="716.27"></line><circle class="cls-5" cx="302.81" cy="694.1" r="4.43"></circle><path class="cls-5" d="M298.89,692s9.95-23.18,13-23-4.88,26.28-4.88,26.28"></path><circle class="cls-5" cx="303.08" cy="717.21" r="5.1"></circle><polygon class="cls-6" points="307.24 694.03 308.17 716.91 297.99 717.16 298.39 694 307.24 694.03"></polygon><line class="cls-10" x1="297.99" y1="717.16" x2="298.39" y2="693.99"></line><line class="cls-10" x1="307.24" y1="694.03" x2="308.17" y2="716.91"></line><circle class="cls-5" cx="300.7" cy="748.51" r="25.02"></circle><polygon class="cls-6" points="278.86 714.27 275.82 745.92 325.72 748.01 325.4 735.32 308.17 717.5 278.86 714.27"></polygon><line class="cls-2" x1="325.4" y1="735.32" x2="308.17" y2="717.5"></line><line class="cls-2" x1="325.72" y1="748.01" x2="325.4" y2="735.32"></line><line class="cls-2" x1="278.86" y1="714.27" x2="275.82" y2="745.92"></line><circle class="cls-5" cx="321.38" cy="717.95" r="4.95"></circle><path class="cls-5" d="M326.33,718.22l1.15-16.65a2.15,2.15,0,0,0-2.84-2.17,5.63,5.63,0,0,0-2.55,2c-2.54,3.36-4.61,12.81-5.31,14.69"></path><circle class="cls-6" cx="317.15" cy="734.92" r="8.26"></circle><path class="cls-6" d="M326.33,718.22l-1,17.53s-6.1,1.93-15.57-4.58c0,0,5.61-11.36,7-15"></path><path class="cls-2" d="M309.79,731.17s5.61-11.36,7-15"></path><line class="cls-2" x1="326.33" y1="718.22" x2="325.36" y2="735.75"></line><circle class="cls-6" cx="208.15" cy="837.02" r="18.97"></circle><polyline class="cls-6" points="237.1 860.78 318.49 766.12 297.6 754.08 283.24 730.59 185.26 807.44"></polyline><line class="cls-2" x1="237.1" y1="860.78" x2="318.49" y2="766.12"></line><line class="cls-2" x1="185.26" y1="807.44" x2="283.24" y2="730.59"></line><ellipse class="cls-9" cx="254.95" cy="1321.36" rx="58.19" ry="58.46" transform="translate(-527.78 226.68) rotate(-24.64)"></ellipse><path class="cls-4" d="M255.7,1379.79c-41.45.73-36.84.51-67,.3-33.75-.23-74.16-.89-74.16-.89l-19.69,0L242.93,1263l12-.06Z"></path><path class="cls-3" d="M242.93,1263,94.83,1379.25H73.76a3,3,0,0,1-2-5.43L225.69,1252.5a7.08,7.08,0,0,1,9.94,1.2Z"></path><line class="cls-4" x1="174.72" y1="1370.7" x2="188.68" y2="1380.09"></line><line class="cls-4" x1="187.04" y1="1369.55" x2="199.71" y2="1379.61"></line><line class="cls-4" x1="198.96" y1="1369.01" x2="213" y2="1379.55"></line><circle class="cls-3" cx="357.06" cy="1145.74" r="62.91"></circle><path class="cls-14" d="M394,1335.67c-51.73-93.56-91.07-157.89-91.07-157.89l108.32-64.1,20.32,32.58,79.75,129.44C503.23,1279.86,400.68,1332.24,394,1335.67Z"></path><circle class="cls-14" cx="456.56" cy="1313.42" r="66.44"></circle><path class="cls-3" d="M456.56,1379.87l-200.86-.08c-24.4.34-13.18-26.09-8.57-61.07,4.92-37.24,7.82-45.47,7.82-55.79,24.25-1.21,182.48-17,201.17-16"></path><path class="cls-15" d="M255,1262.93c18.8-.94,118.19-10.64,170.58-14.47"></path><circle class="cls-5" cx="268.39" cy="933.25" r="16.07"></circle><circle class="cls-5" cx="257.76" cy="885.5" r="16.07"></circle><polygon class="cls-5" points="252.67 936.63 242.07 889.01 273.5 882.24 284.21 930.38 252.67 936.63"></polygon><circle class="cls-6" cx="247.31" cy="890.17" r="6.77"></circle><path class="cls-6" d="M293.86,869.92c-2.61-9.95-6.64-22.57-11.42-28.57-7-8.16-34.62-7.38-44.28,6.38-2.64,3.76-4.74,8.46-4.46,13.4.8,14.12,9.48,29.47,11.41,31a34,34,0,0,0,5.1,2.88c4.32,2.13,9.56,4.35,9.56,4.35s4.43,2.66,13.77,4.59c10.08,2.08,22.61,3.62,22.73-10.62A79,79,0,0,0,294.92,876"></path><path class="cls-5" d="M267,902.32c1.83.57,4,1.15,6.59,1.68,10.08,2.08,22.48,3.48,22.73-10.62A77.78,77.78,0,0,0,294.92,876c1.52-.81,2.21-2.31,1.76-3.45-.79-2-2.15-2.15-2.82-2.62-2.61-10-7.49-23.67-11.42-28.57"></path><path class="cls-3" d="M233.7,861.13c.8,14.12,8.08,33.15,9.28,35.34-.23.59,9.8-3.69,15.45-11.26s8-18.14,11.91-29.22c3.19-1.26,9.76-.43,14.33-3.77,6.7-4.89,2.83-9-1.6-12.33-12.29-8.52-22.8-5.59-35.92-.09C232.27,846.05,233.7,861.13,233.7,861.13Z"></path><circle class="cls-12" cx="286.94" cy="868.56" r="1.49"></circle><path class="cls-5" d="M287,881.79c3.24,2,8.83-.08,8.83-.08"></path><path class="cls-5" d="M266,871.06s-15.39-6-16.85,2.23c-1.17,6.6,17.81,10,17.81,10"></path><line class="cls-2" x1="256.8" y1="874.78" x2="267.11" y2="877.09"></line><path class="cls-3" d="M490.69,1317.5c29.56-.36,66.91-1.28,70.46-13,3.63-12-75-28.37-75-28.37l-61.8,20.72S437.67,1318.16,490.69,1317.5Z"></path><ellipse class="cls-8" cx="488.48" cy="1299.15" rx="52.41" ry="52.17" transform="translate(-507.84 332.84) rotate(-25.27)"></ellipse><path class="cls-3" d="M599,1356.7a21.69,21.69,0,0,1-.29,3.63,23.6,23.6,0,0,1-22.27,19.94c-.34,0-.69,0-1,0a23.6,23.6,0,0,1-23.37-20.36,22.85,22.85,0,0,1-.22-3.23,23.59,23.59,0,0,1,23.59-23.59,19.76,19.76,0,0,1,2,.1A23.57,23.57,0,0,1,599,1356.7Z"></path><path class="cls-4" d="M551.86,1356.7a23.59,23.59,0,0,1,23.59-23.59,19.76,19.76,0,0,1,2,.1A23.57,23.57,0,0,1,599,1356.7"></path><circle class="cls-16" cx="575.45" cy="1356.7" r="2.44"></circle><path class="cls-4" d="M575.45,1333.11c39.36,0,60.91,35,60.91,44.59a2.59,2.59,0,0,1-2.38,2.59H575.49"></path><path class="cls-3" d="M575.48,1361.15v19.14H634a2.6,2.6,0,0,0,2.39-2.59c0-3.32-2.58-9.67-7.57-16.55Z"></path><path class="cls-9" d="M575.45,1333.11l0,47.18H432.62c-6.33,0-8.77-5.73-8.77-9.49,0-4.92,12.25-71.36,12.25-71.36l103.9-9.88S543.94,1330.23,575.45,1333.11Z"></path><path class="cls-3" d="M425.18,1361.15c-.71,4.54-1.33,8.65-1.33,9.65,0,3.76,2.44,9.49,8.77,9.49H575.45v-19.14Z"></path><path class="cls-2" d="M540,1289.56s3.94,40.67,35.45,43.55"></path><path class="cls-2" d="M423.85,1370.8c0-4.92,12.25-71.36,12.25-71.36"></path><line class="cls-2" x1="519.24" y1="1325.94" x2="547.94" y2="1314.2"></line><line class="cls-2" x1="531.48" y1="1330.81" x2="552.46" y2="1320.79"></line><line class="cls-2" x1="545.47" y1="1335.95" x2="558.63" y2="1326.73"></line><circle class="cls-3" cx="368.2" cy="1133.84" r="62.92"></circle><path class="cls-3" d="M559.06,1165.55c-105.74,15.83-181.93,30.59-181.93,30.59l-21.57-124,39.11-8L541.73,1034C542.82,1043,558.19,1158.06,559.06,1165.55Z"></path><path class="cls-15" d="M559.06,1165.55c-105.74,15.83-181.93,30.59-181.93,30.59"></path><circle class="cls-3" cx="554.25" cy="1099.28" r="66.44"></circle><path class="cls-3" d="M617.47,1119.77l-41.14,134.81-2.21,7.24-13,42.64c-27.3.18-27.44,6.52-67.44-12.74-33.85-16.29-52.82,3.6-69.33,5.09,5.82-14.86,60.18-200.71,66.73-218.25"></path><path class="cls-15" d="M424.38,1296.81c4-10.13,30.49-99.72,49.05-161.28"></path><circle class="cls-3" cx="342.17" cy="1097.66" r="70.57"></circle><path class="cls-4" d="M407.21,1070.25c-8.35-19.85-73.11-169.88-148.06-140.07-60.22,19.15-1.39,115.56,4,205.35C316.59,1128,407.21,1070.25,407.21,1070.25Z"></path><path class="cls-3" d="M280.11,1131.3c4.06,8.56,19.75,40.65,19.75,40.65l111.35-58.27.11-30.07Z"></path><circle class="cls-5" cx="572.5" cy="941.81" r="24.15"></circle><circle class="cls-6" cx="594.11" cy="924.69" r="8.2"></circle><path class="cls-5" d="M594.24,916.5l32.46,2a2.13,2.13,0,0,1,1.8,3.06,5.59,5.59,0,0,1-2.3,2.28c-3.6,2.11-15.44,4.89-17.37,5.36-3.81.93-12,3.19-12,3.19"></path><circle class="cls-5" cx="614.32" cy="960.17" r="4.71"></circle><path class="cls-5" d="M611.89,956.13s16.42-12.36,19.21-9.1-13.78,16.78-13.78,16.78"></path><circle class="cls-5" cx="589.75" cy="958.69" r="5.43"></circle><polyline class="cls-6" points="614.04 964.89 589.67 964.11 590.77 953.35 614.71 955.48"></polyline><line class="cls-2" x1="590.77" y1="953.35" x2="614.71" y2="955.48"></line><line class="cls-2" x1="589.67" y1="964.11" x2="614.04" y2="964.89"></line><circle class="cls-5" cx="623.8" cy="950.72" r="4.71"></circle><path class="cls-5" d="M627.59,953.53s12.57-17.93,9.6-21-17.08,15.28-17.08,15.28"></path><circle class="cls-5" cx="599.48" cy="948.6" r="6.3"></circle><polyline class="cls-6" points="624.36 946.04 600.42 942.37 599.51 954.9 623.79 955.44"></polyline><line class="cls-2" x1="599.51" y1="954.9" x2="623.79" y2="955.44"></line><line class="cls-2" x1="622.82" y1="945.8" x2="600.42" y2="942.37"></line><circle class="cls-5" cx="623.15" cy="941.29" r="4.71"></circle><path class="cls-5" d="M626.51,944.59s14.33-14.15,12.09-17.8c-2.35-3.81-18.56,11-18.56,11"></path><circle class="cls-5" cx="598.61" cy="939.42" r="5.43"></circle><polyline class="cls-6" points="623.58 936.59 599.27 934.04 598.9 944.84 622.98 946"></polyline><line class="cls-2" x1="598.9" y1="944.84" x2="622.98" y2="946"></line><line class="cls-2" x1="623.58" y1="936.59" x2="599.27" y2="934.04"></line><circle class="cls-5" cx="626.35" cy="931.38" r="4.43"></circle><path class="cls-5" d="M630.07,933.78s8.78-12.12,8-15.11-14.61,9.4-14.61,9.4"></path><circle class="cls-5" cx="603.24" cy="930.78" r="5.1"></circle><polyline class="cls-6" points="626.47 926.95 603.62 925.7 603.77 935.85 626.34 935.81"></polyline><line class="cls-2" x1="603.77" y1="935.85" x2="626.34" y2="935.81"></line><line class="cls-2" x1="626.47" y1="926.95" x2="603.62" y2="925.7"></line><path class="cls-6" d="M571.26,917.68c-2.3,13.23,3.5,48.18,3.5,48.18a36.73,36.73,0,0,0,14.91-1.75l12.24-20.9,1.71-17.51-6.41-6.91-4-2.26Z"></path><path class="cls-2" d="M574.76,965.86a36.73,36.73,0,0,0,14.91-1.75"></path><path class="cls-2" d="M593.75,916.51l-22.49,1.17"></path><path class="cls-3" d="M368.76,1021.68s12.46,2.39,13.48-19c1.39-29-13.24-68.28-13.24-68.28s-32.41,6.3-31,39S368.76,1021.68,368.76,1021.68Z"></path><circle class="cls-17" cx="287.05" cy="967.34" r="37.25"></circle><circle class="cls-5" cx="442.42" cy="975.81" r="37.45"></circle><path class="cls-6" d="M297.13,930.59l144.94,7.77s-.18,71.76-.28,74.89c-41.14-.72-116.85-5.85-145.49-7.89"></path><path class="cls-2" d="M441.79,1013.25c-41.14-.72-116.85-5.85-145.49-7.89"></path><line class="cls-2" x1="297.13" y1="930.59" x2="442.07" y2="938.36"></line><path class="cls-4" d="M284.9,1004.53l83.86,17.15s-10.09-14.88-10.58-41.18c-.34-17.75,10.82-46.06,10.82-46.06l-79.21-4.25"></path><circle class="cls-6" cx="442.42" cy="975.81" r="18.97"></circle><polyline class="cls-6" points="455.39 1010.95 579.05 965.06 561.16 946.53 568.46 917.99 438.69 938.54"></polyline><line class="cls-2" x1="455.39" y1="1010.94" x2="579.05" y2="965.06"></line><line class="cls-2" x1="438.69" y1="938.54" x2="568.46" y2="917.99"></line></svg>