<svg xmlns="http://www.w3.org/2000/svg" version="1.1" xmlns:xlink="http://www.w3.org/1999/xlink" xmlns:svgjs="http://svgjs.dev/svgjs" viewBox="0 0 800 800"><defs><linearGradient x1="50%" y1="0%" x2="50%" y2="100%" id="nnneon-grad"><stop stop-color="hsl(162, 100%, 58%)" stop-opacity="1" offset="0%"></stop><stop stop-color="hsl(270, 73%, 53%)" stop-opacity="1" offset="100%"></stop></linearGradient><filter id="nnneon-filter" x="-100%" y="-100%" width="400%" height="400%" filterUnits="objectBoundingBox" primitiveUnits="userSpaceOnUse" color-interpolation-filters="sRGB">
	<feGaussianBlur stdDeviation="23 18" x="0%" y="0%" width="100%" height="100%" in="SourceGraphic" edgeMode="none" result="blur"></feGaussianBlur></filter><filter id="nnneon-filter2" x="-100%" y="-100%" width="400%" height="400%" filterUnits="objectBoundingBox" primitiveUnits="userSpaceOnUse" color-interpolation-filters="sRGB">
	<feGaussianBlur stdDeviation="10 17" x="0%" y="0%" width="100%" height="100%" in="SourceGraphic" edgeMode="none" result="blur"></feGaussianBlur></filter></defs><g stroke-width="44" stroke="url(#nnneon-grad)" fill="none"><path d="M374.6623831278273 62.43295720401764C385.0427985496832 41.4572811609431 414.9571656504669 41.4572811609431 425.3375810723228 62.43295720401764L747.0315172817243 712.4923384451465C756.3292259752111 731.2799857473398 742.6582867104794 753.2987917715321 721.6967452199946 753.2987917715321H78.30321898015552C57.34167748967053 753.2987917715321 43.67073822493904 731.2799857473398 52.968446918425855 712.4923384451465L374.6623831278273 62.43295720401764Z " filter="url(#nnneon-filter)"></path><path d="M396.6623831278273 62.43295720401764C407.0427985496832 41.4572811609431 436.9571656504669 41.4572811609431 447.3375810723228 62.43295720401764L769.0315172817243 712.4923384451465C778.3292259752111 731.2799857473398 764.6582867104794 753.2987917715321 743.6967452199946 753.2987917715321H100.30321898015552C79.34167748967053 753.2987917715321 65.67073822493904 731.2799857473398 74.96844691842585 712.4923384451465L396.6623831278273 62.43295720401764Z " filter="url(#nnneon-filter2)" opacity="0"></path><path d="M352.6623831278273 62.43295720401764C363.0427985496832 41.4572811609431 392.9571656504669 41.4572811609431 403.3375810723228 62.43295720401764L725.0315172817243 712.4923384451465C734.3292259752111 731.2799857473398 720.6582867104794 753.2987917715321 699.6967452199946 753.2987917715321H56.30321898015552C35.34167748967053 753.2987917715321 21.670738224939043 731.2799857473398 30.968446918425855 712.4923384451465L352.6623831278273 62.43295720401764Z " filter="url(#nnneon-filter2)" opacity="0"></path><path d="M374.6623831278273 62.43295720401764C385.0427985496832 41.4572811609431 414.9571656504669 41.4572811609431 425.3375810723228 62.43295720401764L747.0315172817243 712.4923384451465C756.3292259752111 731.2799857473398 742.6582867104794 753.2987917715321 721.6967452199946 753.2987917715321H78.30321898015552C57.34167748967053 753.2987917715321 43.67073822493904 731.2799857473398 52.968446918425855 712.4923384451465L374.6623831278273 62.43295720401764Z "></path></g></svg>